<svg width="24" height="14" viewBox="0 0 24 14" fill="none" xmlns="http://www.w3.org/2000/svg">
<path d="M24 6.21053L24 7.78948C21.0192 8.10526 18.8094 10.2632 18.6038 14L16.8565 13.5789C17.0621 12.1579 17.5246 10.9474 18.2441 9.89474C18.9636 8.84211 19.8372 8.10526 20.8651 7.78948L-3.18795e-05 7.78947L-3.16035e-05 6.21052L20.8137 6.21053C20.8137 6.21053 20.8137 6.21053 20.8651 6.21053L20.8137 6.21053C19.7858 5.89474 18.9636 5.21053 18.1927 4.1579C17.4732 3.05263 17.0107 1.84211 16.8051 0.421055L18.5524 3.24382e-06C18.8094 3.73684 21.0192 5.89474 24 6.21053Z" fill="white"/>
</svg>
